<mxfile host="app.diagrams.net" agent="Mozilla/5.0 (Windows NT 10.0; Win64; x64) AppleWebKit/537.36 (KHTML, like Gecko) Chrome/140.0.0.0 Safari/537.36" version="28.2.0">
  <diagram name="Página-1" id="NVKwCjD3-OAU0ADyMpce">
    <mxGraphModel dx="4300" dy="1873" grid="1" gridSize="10" guides="1" tooltips="1" connect="1" arrows="1" fold="1" page="1" pageScale="1" pageWidth="827" pageHeight="1169" math="0" shadow="0">
      <root>
        <mxCell id="0" />
        <mxCell id="1" parent="0" />
        <mxCell id="DdN-tmg3quHi_YDR4TzV-1" value="&lt;span id=&quot;docs-internal-guid-d00bff3a-7fff-39e5-ea03-c9a540244fa6&quot;&gt;&lt;span style=&quot;font-family: Aptos; color: rgb(0, 0, 0); background-color: transparent; font-weight: 700; font-variant-numeric: normal; font-variant-east-asian: normal; font-variant-alternates: normal; font-variant-position: normal; font-variant-emoji: normal; vertical-align: baseline; white-space-collapse: preserve;&quot;&gt;&lt;font style=&quot;font-size: 20px;&quot;&gt;Fluxograma de Processos - Rede Social Uniasselvi&lt;/font&gt;&lt;/span&gt;&lt;/span&gt;" style="text;html=1;align=center;verticalAlign=middle;whiteSpace=wrap;rounded=0;" vertex="1" parent="1">
          <mxGeometry x="239" y="30" width="471" height="30" as="geometry" />
        </mxCell>
        <mxCell id="DdN-tmg3quHi_YDR4TzV-8" style="edgeStyle=orthogonalEdgeStyle;rounded=0;orthogonalLoop=1;jettySize=auto;html=1;exitX=0.5;exitY=1;exitDx=0;exitDy=0;entryX=0;entryY=0.5;entryDx=0;entryDy=0;" edge="1" parent="1" source="DdN-tmg3quHi_YDR4TzV-2" target="DdN-tmg3quHi_YDR4TzV-3">
          <mxGeometry relative="1" as="geometry" />
        </mxCell>
        <mxCell id="DdN-tmg3quHi_YDR4TzV-2" value="Início do Projeto" style="ellipse;whiteSpace=wrap;html=1;" vertex="1" parent="1">
          <mxGeometry x="-90" y="100" width="170" height="40" as="geometry" />
        </mxCell>
        <mxCell id="DdN-tmg3quHi_YDR4TzV-9" style="edgeStyle=orthogonalEdgeStyle;rounded=0;orthogonalLoop=1;jettySize=auto;html=1;exitX=1;exitY=0.5;exitDx=0;exitDy=0;entryX=0;entryY=0.5;entryDx=0;entryDy=0;" edge="1" parent="1" source="DdN-tmg3quHi_YDR4TzV-3" target="DdN-tmg3quHi_YDR4TzV-5">
          <mxGeometry relative="1" as="geometry" />
        </mxCell>
        <mxCell id="DdN-tmg3quHi_YDR4TzV-3" value="Definir escopo e objetivos estratégicos" style="rounded=0;whiteSpace=wrap;html=1;" vertex="1" parent="1">
          <mxGeometry x="140" y="150" width="190" height="50" as="geometry" />
        </mxCell>
        <mxCell id="DdN-tmg3quHi_YDR4TzV-10" style="edgeStyle=orthogonalEdgeStyle;rounded=0;orthogonalLoop=1;jettySize=auto;html=1;exitX=1;exitY=0.5;exitDx=0;exitDy=0;entryX=0;entryY=0.5;entryDx=0;entryDy=0;" edge="1" parent="1" source="DdN-tmg3quHi_YDR4TzV-5" target="DdN-tmg3quHi_YDR4TzV-6">
          <mxGeometry relative="1" as="geometry" />
        </mxCell>
        <mxCell id="DdN-tmg3quHi_YDR4TzV-5" value="Alocar papéis e responsabilidades" style="rounded=0;whiteSpace=wrap;html=1;" vertex="1" parent="1">
          <mxGeometry x="380" y="150" width="190" height="50" as="geometry" />
        </mxCell>
        <mxCell id="DdN-tmg3quHi_YDR4TzV-101" style="edgeStyle=orthogonalEdgeStyle;rounded=0;orthogonalLoop=1;jettySize=auto;html=1;exitX=1;exitY=0.5;exitDx=0;exitDy=0;" edge="1" parent="1" source="DdN-tmg3quHi_YDR4TzV-6" target="DdN-tmg3quHi_YDR4TzV-7">
          <mxGeometry relative="1" as="geometry" />
        </mxCell>
        <mxCell id="DdN-tmg3quHi_YDR4TzV-6" value="Elaborar cronograma" style="rounded=0;whiteSpace=wrap;html=1;" vertex="1" parent="1">
          <mxGeometry x="630" y="150" width="120" height="50" as="geometry" />
        </mxCell>
        <mxCell id="DdN-tmg3quHi_YDR4TzV-102" style="edgeStyle=orthogonalEdgeStyle;rounded=0;orthogonalLoop=1;jettySize=auto;html=1;exitX=1;exitY=0.5;exitDx=0;exitDy=0;entryX=1;entryY=0.5;entryDx=0;entryDy=0;" edge="1" parent="1" source="DdN-tmg3quHi_YDR4TzV-7" target="DdN-tmg3quHi_YDR4TzV-12">
          <mxGeometry relative="1" as="geometry" />
        </mxCell>
        <mxCell id="DdN-tmg3quHi_YDR4TzV-7" value="Backlog inicial de funcionalidades" style="shape=document;whiteSpace=wrap;html=1;boundedLbl=1;" vertex="1" parent="1">
          <mxGeometry x="810" y="145" width="141" height="60" as="geometry" />
        </mxCell>
        <mxCell id="DdN-tmg3quHi_YDR4TzV-20" style="edgeStyle=orthogonalEdgeStyle;rounded=0;orthogonalLoop=1;jettySize=auto;html=1;exitX=0;exitY=0.5;exitDx=0;exitDy=0;entryX=1;entryY=0.5;entryDx=0;entryDy=0;" edge="1" parent="1" source="DdN-tmg3quHi_YDR4TzV-12" target="DdN-tmg3quHi_YDR4TzV-18">
          <mxGeometry relative="1" as="geometry" />
        </mxCell>
        <mxCell id="DdN-tmg3quHi_YDR4TzV-12" value="Coleta de requisitos (entrevistas, pesquisas, benchmarking)" style="rounded=0;whiteSpace=wrap;html=1;" vertex="1" parent="1">
          <mxGeometry x="761" y="240" width="190" height="50" as="geometry" />
        </mxCell>
        <mxCell id="DdN-tmg3quHi_YDR4TzV-22" style="edgeStyle=orthogonalEdgeStyle;rounded=0;orthogonalLoop=1;jettySize=auto;html=1;exitX=0;exitY=0.5;exitDx=0;exitDy=0;entryX=1;entryY=0.5;entryDx=0;entryDy=0;" edge="1" parent="1" source="DdN-tmg3quHi_YDR4TzV-18" target="DdN-tmg3quHi_YDR4TzV-21">
          <mxGeometry relative="1" as="geometry" />
        </mxCell>
        <mxCell id="DdN-tmg3quHi_YDR4TzV-18" value="Organizar requisitos em histórias de usuário" style="shape=document;whiteSpace=wrap;html=1;boundedLbl=1;" vertex="1" parent="1">
          <mxGeometry x="559.5" y="235" width="141" height="60" as="geometry" />
        </mxCell>
        <mxCell id="DdN-tmg3quHi_YDR4TzV-103" style="edgeStyle=orthogonalEdgeStyle;rounded=0;orthogonalLoop=1;jettySize=auto;html=1;exitX=0;exitY=0.5;exitDx=0;exitDy=0;entryX=1;entryY=0.5;entryDx=0;entryDy=0;" edge="1" parent="1" source="DdN-tmg3quHi_YDR4TzV-21" target="DdN-tmg3quHi_YDR4TzV-23">
          <mxGeometry relative="1" as="geometry" />
        </mxCell>
        <mxCell id="DdN-tmg3quHi_YDR4TzV-21" value="Armazenar backlog no repositório do projeto" style="shape=datastore;whiteSpace=wrap;html=1;" vertex="1" parent="1">
          <mxGeometry x="390" y="215" width="100" height="100" as="geometry" />
        </mxCell>
        <mxCell id="DdN-tmg3quHi_YDR4TzV-104" style="edgeStyle=orthogonalEdgeStyle;rounded=0;orthogonalLoop=1;jettySize=auto;html=1;exitX=0.5;exitY=1;exitDx=0;exitDy=0;" edge="1" parent="1" source="DdN-tmg3quHi_YDR4TzV-23" target="DdN-tmg3quHi_YDR4TzV-26">
          <mxGeometry relative="1" as="geometry" />
        </mxCell>
        <mxCell id="DdN-tmg3quHi_YDR4TzV-23" value="Preparar especificações funcionais e não funcionais" style="rounded=0;whiteSpace=wrap;html=1;" vertex="1" parent="1">
          <mxGeometry x="140" y="240" width="185" height="50" as="geometry" />
        </mxCell>
        <mxCell id="DdN-tmg3quHi_YDR4TzV-33" style="edgeStyle=orthogonalEdgeStyle;rounded=0;orthogonalLoop=1;jettySize=auto;html=1;exitX=1;exitY=0.5;exitDx=0;exitDy=0;entryX=0;entryY=0.5;entryDx=0;entryDy=0;" edge="1" parent="1" source="DdN-tmg3quHi_YDR4TzV-26" target="DdN-tmg3quHi_YDR4TzV-32">
          <mxGeometry relative="1" as="geometry" />
        </mxCell>
        <mxCell id="DdN-tmg3quHi_YDR4TzV-34" value="Sim" style="edgeLabel;html=1;align=center;verticalAlign=middle;resizable=0;points=[];" vertex="1" connectable="0" parent="DdN-tmg3quHi_YDR4TzV-33">
          <mxGeometry x="-0.265" y="-1" relative="1" as="geometry">
            <mxPoint as="offset" />
          </mxGeometry>
        </mxCell>
        <mxCell id="DdN-tmg3quHi_YDR4TzV-105" style="edgeStyle=orthogonalEdgeStyle;rounded=0;orthogonalLoop=1;jettySize=auto;html=1;exitX=0;exitY=0.5;exitDx=0;exitDy=0;entryX=0;entryY=0.5;entryDx=0;entryDy=0;" edge="1" parent="1" source="DdN-tmg3quHi_YDR4TzV-26" target="DdN-tmg3quHi_YDR4TzV-23">
          <mxGeometry relative="1" as="geometry" />
        </mxCell>
        <mxCell id="DdN-tmg3quHi_YDR4TzV-106" value="Não" style="edgeLabel;html=1;align=center;verticalAlign=middle;resizable=0;points=[];" vertex="1" connectable="0" parent="DdN-tmg3quHi_YDR4TzV-105">
          <mxGeometry x="0.0121" y="1" relative="1" as="geometry">
            <mxPoint as="offset" />
          </mxGeometry>
        </mxCell>
        <mxCell id="DdN-tmg3quHi_YDR4TzV-26" value="Requisitos validados?" style="rhombus;whiteSpace=wrap;html=1;" vertex="1" parent="1">
          <mxGeometry x="137.5" y="350" width="190" height="70" as="geometry" />
        </mxCell>
        <mxCell id="DdN-tmg3quHi_YDR4TzV-107" style="edgeStyle=orthogonalEdgeStyle;rounded=0;orthogonalLoop=1;jettySize=auto;html=1;exitX=1;exitY=0.5;exitDx=0;exitDy=0;entryX=0;entryY=0.5;entryDx=0;entryDy=0;" edge="1" parent="1" source="DdN-tmg3quHi_YDR4TzV-32" target="DdN-tmg3quHi_YDR4TzV-37">
          <mxGeometry relative="1" as="geometry" />
        </mxCell>
        <mxCell id="DdN-tmg3quHi_YDR4TzV-32" value="Definir arquitetura do sistema (camadas, APIs, cliente-servidor)" style="rounded=0;whiteSpace=wrap;html=1;" vertex="1" parent="1">
          <mxGeometry x="399" y="360" width="200" height="50" as="geometry" />
        </mxCell>
        <mxCell id="DdN-tmg3quHi_YDR4TzV-108" style="edgeStyle=orthogonalEdgeStyle;rounded=0;orthogonalLoop=1;jettySize=auto;html=1;exitX=1;exitY=0.5;exitDx=0;exitDy=0;entryX=0.75;entryY=0;entryDx=0;entryDy=0;" edge="1" parent="1" source="DdN-tmg3quHi_YDR4TzV-37" target="DdN-tmg3quHi_YDR4TzV-39">
          <mxGeometry relative="1" as="geometry" />
        </mxCell>
        <mxCell id="DdN-tmg3quHi_YDR4TzV-37" value="Modelagem de dados (DER)" style="rounded=0;whiteSpace=wrap;html=1;" vertex="1" parent="1">
          <mxGeometry x="661" y="360" width="200" height="50" as="geometry" />
        </mxCell>
        <mxCell id="DdN-tmg3quHi_YDR4TzV-42" style="edgeStyle=orthogonalEdgeStyle;rounded=0;orthogonalLoop=1;jettySize=auto;html=1;exitX=0;exitY=0.5;exitDx=0;exitDy=0;entryX=1;entryY=0.5;entryDx=0;entryDy=0;" edge="1" parent="1" source="DdN-tmg3quHi_YDR4TzV-39" target="DdN-tmg3quHi_YDR4TzV-41">
          <mxGeometry relative="1" as="geometry" />
        </mxCell>
        <mxCell id="DdN-tmg3quHi_YDR4TzV-39" value="Modelagem de casos de uso e fluxos (UML)" style="rounded=0;whiteSpace=wrap;html=1;" vertex="1" parent="1">
          <mxGeometry x="770" y="460" width="200" height="50" as="geometry" />
        </mxCell>
        <mxCell id="DdN-tmg3quHi_YDR4TzV-109" style="edgeStyle=orthogonalEdgeStyle;rounded=0;orthogonalLoop=1;jettySize=auto;html=1;exitX=0;exitY=0.5;exitDx=0;exitDy=0;entryX=1;entryY=0.5;entryDx=0;entryDy=0;" edge="1" parent="1" source="DdN-tmg3quHi_YDR4TzV-41" target="DdN-tmg3quHi_YDR4TzV-62">
          <mxGeometry relative="1" as="geometry" />
        </mxCell>
        <mxCell id="DdN-tmg3quHi_YDR4TzV-41" value="Definição de interface e padrões de usabilidade" style="rounded=0;whiteSpace=wrap;html=1;" vertex="1" parent="1">
          <mxGeometry x="510" y="460" width="200" height="50" as="geometry" />
        </mxCell>
        <mxCell id="DdN-tmg3quHi_YDR4TzV-115" style="edgeStyle=orthogonalEdgeStyle;rounded=0;orthogonalLoop=1;jettySize=auto;html=1;exitX=0.5;exitY=1;exitDx=0;exitDy=0;entryX=0.5;entryY=0;entryDx=0;entryDy=0;" edge="1" parent="1" source="DdN-tmg3quHi_YDR4TzV-43" target="DdN-tmg3quHi_YDR4TzV-44">
          <mxGeometry relative="1" as="geometry" />
        </mxCell>
        <mxCell id="DdN-tmg3quHi_YDR4TzV-43" value="Desenvolvimento incremental (sprints Scrum)" style="rounded=0;whiteSpace=wrap;html=1;" vertex="1" parent="1">
          <mxGeometry x="-20" y="460" width="200" height="50" as="geometry" />
        </mxCell>
        <mxCell id="DdN-tmg3quHi_YDR4TzV-116" style="edgeStyle=orthogonalEdgeStyle;rounded=0;orthogonalLoop=1;jettySize=auto;html=1;exitX=1;exitY=0.5;exitDx=0;exitDy=0;entryX=0;entryY=0.5;entryDx=0;entryDy=0;" edge="1" parent="1" source="DdN-tmg3quHi_YDR4TzV-44" target="DdN-tmg3quHi_YDR4TzV-45">
          <mxGeometry relative="1" as="geometry" />
        </mxCell>
        <mxCell id="DdN-tmg3quHi_YDR4TzV-44" value="Controle de versão (Git)" style="rounded=0;whiteSpace=wrap;html=1;" vertex="1" parent="1">
          <mxGeometry x="10" y="550" width="200" height="50" as="geometry" />
        </mxCell>
        <mxCell id="DdN-tmg3quHi_YDR4TzV-117" style="edgeStyle=orthogonalEdgeStyle;rounded=0;orthogonalLoop=1;jettySize=auto;html=1;exitX=1;exitY=0.5;exitDx=0;exitDy=0;entryX=0;entryY=0.5;entryDx=0;entryDy=0;" edge="1" parent="1" source="DdN-tmg3quHi_YDR4TzV-45" target="DdN-tmg3quHi_YDR4TzV-48">
          <mxGeometry relative="1" as="geometry" />
        </mxCell>
        <mxCell id="DdN-tmg3quHi_YDR4TzV-45" value="Configurar pipelines CI/CD" style="rounded=0;whiteSpace=wrap;html=1;" vertex="1" parent="1">
          <mxGeometry x="244" y="560" width="200" height="50" as="geometry" />
        </mxCell>
        <mxCell id="DdN-tmg3quHi_YDR4TzV-118" style="edgeStyle=orthogonalEdgeStyle;rounded=0;orthogonalLoop=1;jettySize=auto;html=1;exitX=1;exitY=0.5;exitDx=0;exitDy=0;entryX=0;entryY=0.5;entryDx=0;entryDy=0;" edge="1" parent="1" source="DdN-tmg3quHi_YDR4TzV-48" target="DdN-tmg3quHi_YDR4TzV-50">
          <mxGeometry relative="1" as="geometry" />
        </mxCell>
        <mxCell id="DdN-tmg3quHi_YDR4TzV-48" value="Revisão de código" style="rounded=0;whiteSpace=wrap;html=1;" vertex="1" parent="1">
          <mxGeometry x="520" y="560" width="200" height="50" as="geometry" />
        </mxCell>
        <mxCell id="DdN-tmg3quHi_YDR4TzV-120" style="edgeStyle=orthogonalEdgeStyle;rounded=0;orthogonalLoop=1;jettySize=auto;html=1;exitX=0.5;exitY=1;exitDx=0;exitDy=0;entryX=0.5;entryY=0;entryDx=0;entryDy=0;" edge="1" parent="1" source="DdN-tmg3quHi_YDR4TzV-50" target="DdN-tmg3quHi_YDR4TzV-51">
          <mxGeometry relative="1" as="geometry" />
        </mxCell>
        <mxCell id="DdN-tmg3quHi_YDR4TzV-50" value="Testes unitários" style="rounded=0;whiteSpace=wrap;html=1;" vertex="1" parent="1">
          <mxGeometry x="790" y="560" width="200" height="50" as="geometry" />
        </mxCell>
        <mxCell id="DdN-tmg3quHi_YDR4TzV-121" style="edgeStyle=orthogonalEdgeStyle;rounded=0;orthogonalLoop=1;jettySize=auto;html=1;exitX=0;exitY=0.5;exitDx=0;exitDy=0;" edge="1" parent="1" source="DdN-tmg3quHi_YDR4TzV-51" target="DdN-tmg3quHi_YDR4TzV-52">
          <mxGeometry relative="1" as="geometry" />
        </mxCell>
        <mxCell id="DdN-tmg3quHi_YDR4TzV-51" value="Testes de integração" style="rounded=0;whiteSpace=wrap;html=1;" vertex="1" parent="1">
          <mxGeometry x="790" y="660" width="200" height="50" as="geometry" />
        </mxCell>
        <mxCell id="DdN-tmg3quHi_YDR4TzV-122" style="edgeStyle=orthogonalEdgeStyle;rounded=0;orthogonalLoop=1;jettySize=auto;html=1;exitX=0;exitY=0.5;exitDx=0;exitDy=0;entryX=1;entryY=0.5;entryDx=0;entryDy=0;" edge="1" parent="1" source="DdN-tmg3quHi_YDR4TzV-52" target="DdN-tmg3quHi_YDR4TzV-53">
          <mxGeometry relative="1" as="geometry" />
        </mxCell>
        <mxCell id="DdN-tmg3quHi_YDR4TzV-52" value="Testes de sistema" style="rounded=0;whiteSpace=wrap;html=1;" vertex="1" parent="1">
          <mxGeometry x="520" y="660" width="200" height="50" as="geometry" />
        </mxCell>
        <mxCell id="DdN-tmg3quHi_YDR4TzV-123" style="edgeStyle=orthogonalEdgeStyle;rounded=0;orthogonalLoop=1;jettySize=auto;html=1;exitX=0;exitY=0.5;exitDx=0;exitDy=0;" edge="1" parent="1" source="DdN-tmg3quHi_YDR4TzV-53" target="DdN-tmg3quHi_YDR4TzV-54">
          <mxGeometry relative="1" as="geometry" />
        </mxCell>
        <mxCell id="DdN-tmg3quHi_YDR4TzV-53" value="Testes de usabilidade" style="rounded=0;whiteSpace=wrap;html=1;" vertex="1" parent="1">
          <mxGeometry x="244" y="660" width="200" height="50" as="geometry" />
        </mxCell>
        <mxCell id="DdN-tmg3quHi_YDR4TzV-54" value="Testes de aceitação com usuários" style="rounded=0;whiteSpace=wrap;html=1;" vertex="1" parent="1">
          <mxGeometry x="-30" y="660" width="200" height="50" as="geometry" />
        </mxCell>
        <mxCell id="DdN-tmg3quHi_YDR4TzV-113" style="edgeStyle=orthogonalEdgeStyle;rounded=0;orthogonalLoop=1;jettySize=auto;html=1;exitX=0;exitY=0.5;exitDx=0;exitDy=0;entryX=1;entryY=0.5;entryDx=0;entryDy=0;" edge="1" parent="1" source="DdN-tmg3quHi_YDR4TzV-62" target="DdN-tmg3quHi_YDR4TzV-43">
          <mxGeometry relative="1" as="geometry" />
        </mxCell>
        <mxCell id="DdN-tmg3quHi_YDR4TzV-114" value="Sim" style="edgeLabel;html=1;align=center;verticalAlign=middle;resizable=0;points=[];" vertex="1" connectable="0" parent="DdN-tmg3quHi_YDR4TzV-113">
          <mxGeometry x="0.0754" y="2" relative="1" as="geometry">
            <mxPoint as="offset" />
          </mxGeometry>
        </mxCell>
        <mxCell id="DdN-tmg3quHi_YDR4TzV-62" value="Interface aprovada?" style="rhombus;whiteSpace=wrap;html=1;" vertex="1" parent="1">
          <mxGeometry x="244" y="450" width="200" height="70" as="geometry" />
        </mxCell>
        <mxCell id="DdN-tmg3quHi_YDR4TzV-124" style="edgeStyle=orthogonalEdgeStyle;rounded=0;orthogonalLoop=1;jettySize=auto;html=1;exitX=1;exitY=0.5;exitDx=0;exitDy=0;entryX=0;entryY=0.5;entryDx=0;entryDy=0;" edge="1" parent="1" source="DdN-tmg3quHi_YDR4TzV-77" target="DdN-tmg3quHi_YDR4TzV-79">
          <mxGeometry relative="1" as="geometry" />
        </mxCell>
        <mxCell id="DdN-tmg3quHi_YDR4TzV-125" value="Sim" style="edgeLabel;html=1;align=center;verticalAlign=middle;resizable=0;points=[];" vertex="1" connectable="0" parent="DdN-tmg3quHi_YDR4TzV-124">
          <mxGeometry x="-0.1717" y="-1" relative="1" as="geometry">
            <mxPoint as="offset" />
          </mxGeometry>
        </mxCell>
        <mxCell id="DdN-tmg3quHi_YDR4TzV-137" style="edgeStyle=orthogonalEdgeStyle;rounded=0;orthogonalLoop=1;jettySize=auto;html=1;exitX=0;exitY=0.5;exitDx=0;exitDy=0;entryX=0;entryY=0.5;entryDx=0;entryDy=0;" edge="1" parent="1" source="DdN-tmg3quHi_YDR4TzV-77" target="DdN-tmg3quHi_YDR4TzV-43">
          <mxGeometry relative="1" as="geometry" />
        </mxCell>
        <mxCell id="DdN-tmg3quHi_YDR4TzV-138" value="Não" style="edgeLabel;html=1;align=center;verticalAlign=middle;resizable=0;points=[];" vertex="1" connectable="0" parent="DdN-tmg3quHi_YDR4TzV-137">
          <mxGeometry x="0.1451" y="1" relative="1" as="geometry">
            <mxPoint as="offset" />
          </mxGeometry>
        </mxCell>
        <mxCell id="DdN-tmg3quHi_YDR4TzV-77" value="Sistema Aprovado?" style="rhombus;whiteSpace=wrap;html=1;" vertex="1" parent="1">
          <mxGeometry x="-30" y="740" width="200" height="70" as="geometry" />
        </mxCell>
        <mxCell id="DdN-tmg3quHi_YDR4TzV-126" style="edgeStyle=orthogonalEdgeStyle;rounded=0;orthogonalLoop=1;jettySize=auto;html=1;exitX=1;exitY=0.5;exitDx=0;exitDy=0;entryX=0;entryY=0.5;entryDx=0;entryDy=0;" edge="1" parent="1" source="DdN-tmg3quHi_YDR4TzV-79" target="DdN-tmg3quHi_YDR4TzV-82">
          <mxGeometry relative="1" as="geometry" />
        </mxCell>
        <mxCell id="DdN-tmg3quHi_YDR4TzV-79" value="Configuração de servidores e banco de dados" style="rounded=0;whiteSpace=wrap;html=1;" vertex="1" parent="1">
          <mxGeometry x="244" y="750" width="200" height="50" as="geometry" />
        </mxCell>
        <mxCell id="DdN-tmg3quHi_YDR4TzV-127" style="edgeStyle=orthogonalEdgeStyle;rounded=0;orthogonalLoop=1;jettySize=auto;html=1;exitX=1;exitY=0.5;exitDx=0;exitDy=0;entryX=0;entryY=0.5;entryDx=0;entryDy=0;" edge="1" parent="1" source="DdN-tmg3quHi_YDR4TzV-82" target="DdN-tmg3quHi_YDR4TzV-83">
          <mxGeometry relative="1" as="geometry" />
        </mxCell>
        <mxCell id="DdN-tmg3quHi_YDR4TzV-82" value="Deploy em ambiente de produção" style="rounded=0;whiteSpace=wrap;html=1;" vertex="1" parent="1">
          <mxGeometry x="490" y="750" width="200" height="50" as="geometry" />
        </mxCell>
        <mxCell id="DdN-tmg3quHi_YDR4TzV-128" style="edgeStyle=orthogonalEdgeStyle;rounded=0;orthogonalLoop=1;jettySize=auto;html=1;exitX=0.5;exitY=1;exitDx=0;exitDy=0;entryX=0.5;entryY=0;entryDx=0;entryDy=0;" edge="1" parent="1" source="DdN-tmg3quHi_YDR4TzV-83" target="DdN-tmg3quHi_YDR4TzV-84">
          <mxGeometry relative="1" as="geometry" />
        </mxCell>
        <mxCell id="DdN-tmg3quHi_YDR4TzV-83" value="Monitoramento inicial" style="rounded=0;whiteSpace=wrap;html=1;" vertex="1" parent="1">
          <mxGeometry x="750" y="750" width="200" height="50" as="geometry" />
        </mxCell>
        <mxCell id="DdN-tmg3quHi_YDR4TzV-129" style="edgeStyle=orthogonalEdgeStyle;rounded=0;orthogonalLoop=1;jettySize=auto;html=1;exitX=0;exitY=0.5;exitDx=0;exitDy=0;entryX=1;entryY=0.5;entryDx=0;entryDy=0;" edge="1" parent="1" source="DdN-tmg3quHi_YDR4TzV-84" target="DdN-tmg3quHi_YDR4TzV-85">
          <mxGeometry relative="1" as="geometry" />
        </mxCell>
        <mxCell id="DdN-tmg3quHi_YDR4TzV-84" value="Documentação técnica (arquitetura, APIs)" style="shape=document;whiteSpace=wrap;html=1;boundedLbl=1;" vertex="1" parent="1">
          <mxGeometry x="769.75" y="860" width="160.5" height="60" as="geometry" />
        </mxCell>
        <mxCell id="DdN-tmg3quHi_YDR4TzV-130" style="edgeStyle=orthogonalEdgeStyle;rounded=0;orthogonalLoop=1;jettySize=auto;html=1;exitX=0;exitY=0.5;exitDx=0;exitDy=0;entryX=1;entryY=0.5;entryDx=0;entryDy=0;" edge="1" parent="1" source="DdN-tmg3quHi_YDR4TzV-85" target="DdN-tmg3quHi_YDR4TzV-86">
          <mxGeometry relative="1" as="geometry" />
        </mxCell>
        <mxCell id="DdN-tmg3quHi_YDR4TzV-85" value="Manual do usuário" style="shape=document;whiteSpace=wrap;html=1;boundedLbl=1;" vertex="1" parent="1">
          <mxGeometry x="529" y="860" width="161" height="60" as="geometry" />
        </mxCell>
        <mxCell id="DdN-tmg3quHi_YDR4TzV-132" style="edgeStyle=orthogonalEdgeStyle;rounded=0;orthogonalLoop=1;jettySize=auto;html=1;exitX=0;exitY=0.5;exitDx=0;exitDy=0;entryX=1;entryY=0.5;entryDx=0;entryDy=0;" edge="1" parent="1" source="DdN-tmg3quHi_YDR4TzV-86" target="DdN-tmg3quHi_YDR4TzV-93">
          <mxGeometry relative="1" as="geometry" />
        </mxCell>
        <mxCell id="DdN-tmg3quHi_YDR4TzV-86" value="Treinamento para comunidade acadêmica" style="rounded=0;whiteSpace=wrap;html=1;" vertex="1" parent="1">
          <mxGeometry x="260" y="865" width="200" height="50" as="geometry" />
        </mxCell>
        <mxCell id="DdN-tmg3quHi_YDR4TzV-133" style="edgeStyle=orthogonalEdgeStyle;rounded=0;orthogonalLoop=1;jettySize=auto;html=1;exitX=0.5;exitY=1;exitDx=0;exitDy=0;entryX=0.5;entryY=0;entryDx=0;entryDy=0;" edge="1" parent="1" source="DdN-tmg3quHi_YDR4TzV-93" target="DdN-tmg3quHi_YDR4TzV-94">
          <mxGeometry relative="1" as="geometry" />
        </mxCell>
        <mxCell id="DdN-tmg3quHi_YDR4TzV-93" value="Manutenção corretiva (erros)" style="rounded=0;whiteSpace=wrap;html=1;" vertex="1" parent="1">
          <mxGeometry y="865" width="200" height="50" as="geometry" />
        </mxCell>
        <mxCell id="DdN-tmg3quHi_YDR4TzV-134" style="edgeStyle=orthogonalEdgeStyle;rounded=0;orthogonalLoop=1;jettySize=auto;html=1;exitX=1;exitY=0.5;exitDx=0;exitDy=0;entryX=0;entryY=0.5;entryDx=0;entryDy=0;" edge="1" parent="1" source="DdN-tmg3quHi_YDR4TzV-94" target="DdN-tmg3quHi_YDR4TzV-99">
          <mxGeometry relative="1" as="geometry" />
        </mxCell>
        <mxCell id="DdN-tmg3quHi_YDR4TzV-94" value="Manutenção adaptativa (novos ambientes)" style="rounded=0;whiteSpace=wrap;html=1;" vertex="1" parent="1">
          <mxGeometry y="960" width="200" height="50" as="geometry" />
        </mxCell>
        <mxCell id="DdN-tmg3quHi_YDR4TzV-136" style="edgeStyle=orthogonalEdgeStyle;rounded=0;orthogonalLoop=1;jettySize=auto;html=1;exitX=1;exitY=0.5;exitDx=0;exitDy=0;entryX=0;entryY=0.5;entryDx=0;entryDy=0;" edge="1" parent="1" source="DdN-tmg3quHi_YDR4TzV-96" target="DdN-tmg3quHi_YDR4TzV-100">
          <mxGeometry relative="1" as="geometry" />
        </mxCell>
        <mxCell id="DdN-tmg3quHi_YDR4TzV-96" value="Manutenção evolutiva (novas funcionalidades)" style="rounded=0;whiteSpace=wrap;html=1;" vertex="1" parent="1">
          <mxGeometry x="490" y="960" width="200" height="50" as="geometry" />
        </mxCell>
        <mxCell id="DdN-tmg3quHi_YDR4TzV-135" style="edgeStyle=orthogonalEdgeStyle;rounded=0;orthogonalLoop=1;jettySize=auto;html=1;exitX=1;exitY=0.5;exitDx=0;exitDy=0;entryX=0;entryY=0.5;entryDx=0;entryDy=0;" edge="1" parent="1" source="DdN-tmg3quHi_YDR4TzV-99" target="DdN-tmg3quHi_YDR4TzV-96">
          <mxGeometry relative="1" as="geometry" />
        </mxCell>
        <mxCell id="DdN-tmg3quHi_YDR4TzV-99" value="Feedback de usuários" style="shape=parallelogram;perimeter=parallelogramPerimeter;whiteSpace=wrap;html=1;fixedSize=1;" vertex="1" parent="1">
          <mxGeometry x="260" y="955" width="170" height="60" as="geometry" />
        </mxCell>
        <mxCell id="DdN-tmg3quHi_YDR4TzV-100" value="Projeto em Operação Contínua" style="ellipse;whiteSpace=wrap;html=1;" vertex="1" parent="1">
          <mxGeometry x="797" y="960" width="186" height="50" as="geometry" />
        </mxCell>
        <mxCell id="DdN-tmg3quHi_YDR4TzV-111" style="edgeStyle=orthogonalEdgeStyle;rounded=0;orthogonalLoop=1;jettySize=auto;html=1;exitX=0.5;exitY=0;exitDx=0;exitDy=0;entryX=0.655;entryY=-0.002;entryDx=0;entryDy=0;entryPerimeter=0;" edge="1" parent="1" source="DdN-tmg3quHi_YDR4TzV-62" target="DdN-tmg3quHi_YDR4TzV-41">
          <mxGeometry relative="1" as="geometry" />
        </mxCell>
        <mxCell id="DdN-tmg3quHi_YDR4TzV-112" value="Não" style="edgeLabel;html=1;align=center;verticalAlign=middle;resizable=0;points=[];" vertex="1" connectable="0" parent="DdN-tmg3quHi_YDR4TzV-111">
          <mxGeometry x="-0.0235" relative="1" as="geometry">
            <mxPoint as="offset" />
          </mxGeometry>
        </mxCell>
      </root>
    </mxGraphModel>
  </diagram>
</mxfile>
